<svg enable-background="new 0 0 58 58" height="512" viewBox="0 0 58 58" width="512" xmlns="http://www.w3.org/2000/svg"><path d="m54.75 58h-51.5c-1.795 0-3.25-1.455-3.25-3.25v-43.75h58v43.75c0 1.795-1.455 3.25-3.25 3.25z" fill="#e7eced"/><path d="m4 17h49v20h-49z" fill="#dd352e"/><path d="m58 12h-58v-8.75c0-1.795 1.455-3.25 3.25-3.25h51.5c1.795 0 3.25 1.455 3.25 3.25z" fill="#556080"/><path d="m4 4h4v4h-4z" fill="#dd352e"/><path d="m12 4h4v4h-4z" fill="#ebba16"/><path d="m20 4h4v4h-4z" fill="#23a24d"/><g fill="#fff"><path d="m42 24h-16c-.552 0-1-.447-1-1s.448-1 1-1h16c.552 0 1 .447 1 1s-.448 1-1 1z"/><path d="m49 24h-3c-.552 0-1-.447-1-1s.448-1 1-1h3c.552 0 1 .447 1 1s-.448 1-1 1z"/><path d="m42 32h-16c-.552 0-1-.447-1-1s.448-1 1-1h16c.552 0 1 .447 1 1s-.448 1-1 1z"/><path d="m49 32h-3c-.552 0-1-.447-1-1s.448-1 1-1h3c.552 0 1 .447 1 1s-.448 1-1 1z"/><path d="m49 28h-16c-.552 0-1-.447-1-1s.448-1 1-1h16c.552 0 1 .447 1 1s-.448 1-1 1z"/><path d="m29 28h-3c-.552 0-1-.447-1-1s.448-1 1-1h3c.552 0 1 .447 1 1s-.448 1-1 1z"/></g><path d="m10 53h-6c-.552 0-1-.447-1-1s.448-1 1-1h6c.552 0 1 .447 1 1s-.448 1-1 1z" fill="#23a24d"/><path d="m4 42h6v6h-6z" fill="#ebba16"/><path d="m34 53h-6c-.552 0-1-.447-1-1s.448-1 1-1h6c.552 0 1 .447 1 1s-.448 1-1 1z" fill="#ebba16"/><path d="m28 42h6v6h-6z" fill="#c5411e"/><path d="m22 53h-6c-.552 0-1-.447-1-1s.448-1 1-1h6c.552 0 1 .447 1 1s-.448 1-1 1z" fill="#dd352e"/><path d="m16 42h6v6h-6z" fill="#366db6"/><path d="m8 21h14v12h-14z" fill="#fff"/><path d="m18 25 4 4v4h-8v-4z" fill="#188439"/><path d="m13 27-5 6h10z" fill="#23a24d"/><path d="m39 41h14v12h-14z" fill="#fff"/><path d="m49 45 4 4v4h-8v-4z" fill="#188439"/><path d="m44 47-5 6h10z" fill="#23a24d"/></svg>