<?xml version="1.0" encoding="iso-8859-1"?>
<!-- Generator: Adobe Illustrator 19.0.0, SVG Export Plug-In . SVG Version: 6.00 Build 0)  -->
<svg version="1.1" id="Capa_1" xmlns="http://www.w3.org/2000/svg" xmlns:xlink="http://www.w3.org/1999/xlink" x="0px" y="0px"
	 viewBox="0 0 512 512" style="enable-background:new 0 0 512 512;" xml:space="preserve">
<circle style="fill:#6861FF;" cx="256" cy="256" r="256"/>
<path style="fill:#5252D8;" d="M512,256c0-16.414-1.563-32.461-4.516-48.016L426.25,126.75l-340.5,258.5l122.234,122.234
	C223.539,510.436,239.586,512,256,512C397.385,512,512,397.385,512,256z"/>
<rect x="85.75" y="126.75" style="fill:#FFFFFF;" width="340.5" height="258.5"/>
<rect x="85.75" y="255.91" style="fill:#F7F7F7;" width="340.5" height="129.34"/>
<rect x="255.5" y="126.75" style="fill:#EBEBF0;" width="170.75" height="258.5"/>
<rect x="255.5" y="255.91" style="fill:#D2D2D7;" width="170.75" height="129.34"/>
<g>
	<rect x="110.5" y="173.75" style="fill:#B9B9BE;" width="120.5" height="44.5"/>
	<rect x="110.5" y="233.75" style="fill:#B9B9BE;" width="120.5" height="14.5"/>
</g>
<g>
	<rect x="110.5" y="263.75" style="fill:#919196;" width="120.5" height="14.5"/>
	<rect x="110.5" y="293.75" style="fill:#919196;" width="120.5" height="14.5"/>
	<rect x="110.5" y="323.75" style="fill:#919196;" width="120.5" height="14.5"/>
</g>
<g>
	<rect x="280.62" y="173.75" style="fill:#B9B9BE;" width="120.5" height="14.5"/>
	<rect x="280.62" y="203.75" style="fill:#B9B9BE;" width="120.5" height="14.5"/>
	<rect x="280.62" y="233.75" style="fill:#B9B9BE;" width="120.5" height="14.5"/>
</g>
<g>
	<rect x="280.62" y="263.75" style="fill:#919196;" width="120.5" height="14.5"/>
	<rect x="280.62" y="293.75" style="fill:#919196;" width="120.5" height="14.5"/>
	<rect x="280.62" y="323.75" style="fill:#919196;" width="120.5" height="14.5"/>
</g>
<g>
</g>
<g>
</g>
<g>
</g>
<g>
</g>
<g>
</g>
<g>
</g>
<g>
</g>
<g>
</g>
<g>
</g>
<g>
</g>
<g>
</g>
<g>
</g>
<g>
</g>
<g>
</g>
<g>
</g>
</svg>
