<?xml version="1.0" standalone="no"?>
<!DOCTYPE svg PUBLIC "-//W3C//DTD SVG 20010904//EN"
 "http://www.w3.org/TR/2001/REC-SVG-20010904/DTD/svg10.dtd">
<svg version="1.0" xmlns="http://www.w3.org/2000/svg"
 width="512.000000pt" height="512.000000pt" viewBox="0 0 512.000000 512.000000"
 preserveAspectRatio="xMidYMid meet">
<metadata>
Created by potrace 1.15, written by Peter Selinger 2001-2017
</metadata>
<g transform="translate(0.000000,512.000000) scale(0.100000,-0.100000)"
fill="#000000" stroke="none">
<path d="M4110 3799 c-444 -37 -963 -207 -1538 -505 -150 -78 -405 -219 -477
-265 -16 -11 -110 -70 -207 -132 -295 -186 -834 -571 -845 -602 -2 -6 106 44
239 110 451 225 809 372 1193 493 439 139 779 201 1120 207 l190 4 24 28 c13
15 61 69 106 118 45 50 174 192 287 316 l206 226 -51 7 c-62 7 -119 6 -247 -5z"/>
<path d="M2789 3686 c-156 -78 -362 -212 -494 -321 -110 -91 -309 -279 -336
-317 l-22 -31 59 38 c330 213 728 429 1032 560 102 44 111 50 90 59 -12 5 -59
27 -103 48 -43 21 -79 38 -80 38 0 0 -66 -33 -146 -74z"/>
<path d="M652 2833 c-57 -29 -144 -100 -191 -154 -109 -129 -168 -332 -142
-491 6 -40 16 -90 22 -111 11 -43 17 -43 92 -12 34 14 36 17 26 42 -19 50 -28
167 -19 234 24 167 147 337 286 395 26 11 33 18 26 27 -6 7 -16 31 -23 55 -6
23 -15 42 -19 42 -3 0 -29 -12 -58 -27z"/>
<path d="M2444 2682 c-54 -39 -171 -168 -195 -215 -12 -22 -17 -47 -14 -58 10
-30 51 -52 85 -45 35 6 38 -3 15 -57 -8 -20 -15 -43 -15 -52 0 -8 7 -15 15
-15 9 0 15 -9 15 -25 0 -32 39 -53 72 -38 17 7 30 34 54 109 30 91 35 100 64
110 56 19 62 54 9 54 -24 0 -29 4 -25 18 3 9 10 37 16 62 7 25 21 62 31 82 18
35 18 40 4 68 -13 25 -21 30 -54 30 -26 0 -50 -9 -77 -28z"/>
<path d="M2755 2694 c-43 -22 -70 -50 -96 -99 -29 -54 -17 -75 43 -75 31 0 45
6 69 32 16 18 29 36 29 40 0 5 7 8 15 8 8 0 15 -2 15 -5 0 -23 -51 -94 -117
-165 -123 -133 -135 -152 -127 -194 8 -46 27 -56 106 -56 124 1 178 29 178 91
0 34 -13 41 -76 43 -24 0 -44 3 -44 6 0 3 25 30 56 60 105 104 160 201 145
256 -17 64 -125 95 -196 58z"/>
<path d="M3290 2704 c-81 -29 -79 -27 -125 -199 -15 -55 -35 -129 -45 -165
-30 -109 -32 -126 -16 -139 31 -26 60 -9 89 52 32 66 32 66 125 -10 58 -47 60
-47 82 -33 32 20 -28 156 -80 181 l-25 12 26 7 c40 11 71 30 107 64 42 38 56
71 42 97 -16 29 -48 23 -106 -21 -29 -22 -58 -40 -64 -40 -5 0 8 34 30 75 41
76 50 115 28 115 -7 0 -22 2 -33 5 -11 2 -27 1 -35 -1z"/>
<path d="M4441 2689 c-30 -5 -80 -22 -110 -37 -52 -25 -56 -30 -59 -65 -3 -34
-1 -38 26 -43 l29 -6 -22 -66 c-29 -90 -60 -245 -52 -266 5 -12 16 -16 39 -14
29 3 36 10 60 58 15 30 46 112 70 182 40 121 44 127 73 132 24 5 35 16 54 58
23 49 23 52 5 65 -20 14 -34 15 -113 2z"/>
<path d="M4055 2681 c-65 -8 -106 -38 -149 -109 -62 -103 -87 -242 -55 -307 7
-16 30 -40 49 -53 29 -19 44 -23 87 -20 86 7 153 75 205 208 31 79 32 217 2
257 -23 31 -50 36 -139 24z m29 -173 c-9 -102 -67 -239 -106 -246 -19 -4 -33
30 -29 68 6 47 109 230 130 230 5 0 7 -24 5 -52z"/>
<path d="M4675 2673 c-72 -37 -105 -88 -105 -158 0 -43 5 -51 55 -104 30 -32
55 -61 55 -64 0 -18 -65 -38 -117 -35 -63 3 -81 -11 -69 -56 15 -61 143 -73
225 -22 43 28 81 88 81 131 0 37 -25 80 -60 105 -25 18 -31 28 -28 54 3 30 5
31 54 36 40 4 58 12 82 37 38 38 40 55 7 77 -32 21 -139 21 -180 -1z"/>
<path d="M3795 2666 c-40 -17 -48 -29 -80 -108 -15 -38 -31 -68 -35 -68 -4 0
-10 20 -13 45 -16 117 -61 148 -113 79 -48 -62 -131 -371 -107 -395 33 -33
114 47 129 128 8 44 22 42 29 -4 14 -87 29 -118 56 -121 35 -4 73 29 92 80 8
24 34 93 57 153 46 121 64 205 46 217 -15 10 -26 9 -61 -6z"/>
<path d="M750 2637 c-110 -49 -209 -204 -218 -341 -4 -71 12 -176 27 -176 4 0
28 7 54 16 l47 16 -6 82 c-9 112 11 171 80 241 28 28 62 58 75 66 l24 15 -19
47 c-20 50 -25 52 -64 34z"/>
<path d="M810 2393 c-35 -13 -50 -37 -50 -80 0 -38 4 -46 33 -63 35 -22 70
-20 99 7 42 38 28 114 -24 132 -34 12 -36 12 -58 4z"/>
</g>
</svg>
